<?xml version="1.0" encoding="utf-8"?>
<!-- Generator: Adobe Illustrator 25.4.1, SVG Export Plug-In . SVG Version: 6.00 Build 0)  -->
<svg version="1.1" id="Layer_1" xmlns="http://www.w3.org/2000/svg" xmlns:xlink="http://www.w3.org/1999/xlink" x="0px" y="0px"
	 viewBox="0 0 527 512" style="enable-background:new 0 0 527 512;" xml:space="preserve">
<style type="text/css">
	.st0{fill:none;}
	.st1{fill:#DE7D26;}
	.st2{fill:#DF7D26;}
</style>
<g>
	<path class="st0" d="M227.1,46.9c0-9.4-8.2-17-18.2-17c-10.1,0-18.2,7.6-18.2,17V174l-67.4-40c-8.5-5.1-19.7-2.7-25.1,5.2
		c-5.4,7.9-2.9,18.4,5.6,23.4l95.3,56.5c0.1,0,0.1,0,0.1,0c0.7,0.4,1.4,0.8,2.2,1.1c0.1,0.1,0.1,0.1,0.2,0.1
		c0.7,0.3,1.4,0.6,2.2,0.8c0.1,0,0.2,0.1,0.3,0.1c0.3,0.1,0.6,0.1,0.9,0.2c0.1,0.1,0.2,0.1,0.3,0.1c0.3,0.1,0.7,0.2,1,0.2
		c0.1,0,0.2,0,0.4,0c0.3,0.1,0.5,0.1,0.7,0.1s0.3,0,0.5,0c0.3,0,0.5,0,0.8,0c0.1,0,0.2,0,0.3,0c0.1,0,0.2,0,0.3,0c0.2,0,0.5,0,0.7,0
		c0.1,0,0.2,0,0.3,0c0.3-0.1,0.6-0.1,0.8-0.1c0.1,0,0.2,0,0.3,0c0.3,0,0.6-0.1,0.9-0.1h0.1c1.1-0.1,2.2-0.4,3.2-0.8h0.1
		c0.3-0.2,0.6-0.3,0.9-0.4c0.1-0.1,0.2-0.1,0.2-0.1c0.3-0.1,0.6-0.2,0.9-0.4c0.1,0,0.1,0,0.1,0c0.3-0.2,0.6-0.3,0.9-0.5
		c0.2,0,0.3-0.1,0.4-0.2c0.2-0.1,0.4-0.2,0.5-0.3c0.1-0.1,0.3-0.2,0.4-0.3c0.2,0,0.3-0.1,0.4-0.2c0.5-0.3,1-0.8,1.5-1.2
		c0.1-0.1,0.2-0.2,0.3-0.3c0.2-0.1,0.3-0.2,0.4-0.3c0.1-0.1,0.3-0.3,0.4-0.4c0-0.1,0.1-0.2,0.2-0.3c0.2-0.3,0.4-0.5,0.6-0.8l0.1-0.1
		c0.2-0.3,0.4-0.5,0.6-0.8c0-0.1,0-0.1,0-0.1c0-0.1,0-0.1,0-0.1c0.1-0.2,0.3-0.4,0.4-0.6c0.1,0,0.1-0.1,0.1-0.1
		c0.2-0.2,0.3-0.4,0.4-0.6c0.1,0,0.1-0.1,0.1-0.1c0.1-0.2,0.2-0.4,0.3-0.6c0.1-0.1,0.1-0.2,0.1-0.2c0.1-0.2,0.2-0.4,0.3-0.6
		c0-0.1,0.1-0.1,0.1-0.2c0.1-0.1,0.1-0.3,0.2-0.5c0-0.1,0.1-0.2,0.1-0.3c0-0.1,0.1-0.2,0.1-0.4s0.1-0.3,0.1-0.4
		c0-0.2,0.1-0.3,0.1-0.4c0-0.2,0.1-0.3,0.1-0.5c0.1-0.1,0.1-0.2,0.1-0.3c0-0.2,0.1-0.4,0.1-0.6c0-0.1,0-0.1,0-0.2
		c0-0.2,0.1-0.4,0.1-0.6c0-0.1,0-0.1,0-0.2c0-0.3,0-0.5,0-0.7c0-0.1,0-0.1,0-0.2c0-0.3,0-0.5,0-0.7h-0.2V46.9z"/>
	<path class="st1" d="M59,266.7c-0.7-0.5-2-0.6-3.9-0.4L23,276.5c9,21,21.6,40,37,56.5v-62.7C60,268.4,59.7,267.2,59,266.7z"/>
	<path class="st1" d="M516,452.6c-1.1-0.7-2.7-1.1-5-1.1H387.3c-2.8,0-4.2-0.6-4.2-1.9c0-0.5,0.6-1.4,1.9-2.7l72.3-61.2
		c20.8-17.5,35.6-33,44.2-46.6c8.5-13.1,13-28.4,13-44c0-17.2-4.2-32.1-12.6-44.7c-8.3-12.6-19.9-22.2-34.8-28.8
		c-14.8-6.6-31.8-9.9-50.8-9.9c-5.5,0-10.9,0.3-16.1,0.9c-36.2,4.1-64.8,22.5-85.9,55.1c-1.1,1.5-1.8,3.4-1.9,5.3
		c0,2.3,1.3,4.2,3.8,5.7l28.2,14.9c1.5,0.9,3.2,1.4,5,1.5c2.3,0,3.8-0.9,4.6-2.7c10.9-18,23.5-29.8,38-35.4
		c6.6-2.5,13.5-3.8,20.7-3.8h0.1c13.2,0,24.3,3.7,33.4,11.2c9.1,7.5,13.7,17.6,13.7,30.3c0,7.9-1.7,15.8-5,23
		c-3.3,7.3-9.1,15.4-17.3,24.4c-8.3,9-20.4,20.6-36.4,34.8L338.3,436l-1.7,1.6l-9.6,9c-2,1.7-3.9,3.3-5.5,4.7c-0.5,0.5-1,1-1.5,1.4
		c-1.3,1.2-2.4,2.3-3.3,3.3c-0.7,0.8-1.5,1.7-2.1,2.6c-1.2,1.7-2.1,3.7-2.5,5.7c-0.1,0.6-0.2,1.2-0.2,1.8v24.7
		c0,1.4,0.2,2.9,0.7,4.2c0.2,0.6,0.6,1.1,1,1.5c0.2,0.1,0.3,0.2,0.5,0.3c0.1,0.1,0.3,0.2,0.5,0.3c1.2,0.5,2.4,0.8,3.7,0.8
		c0.5,0,1,0,1.6,0h190.8c4.5,0,6.8-2,6.8-6.1v-35C517.5,454.7,517,453.3,516,452.6z"/>
	<g>
		<path class="st2" d="M204,1.5C95.2,1.5,7,89.7,7,198.5c0,13.7,1.4,27.1,4.1,40l62.6-30.2c3.1-1.4,5.9-2.4,8.4-3.1
			c2.6-0.7,5.5-1.1,8.5-1.1h24.5c5.5,0,8.8,3.7,8.8,9.8v164.7c8.9,4,18.1,7.3,27.6,9.9v-16.2c0-10.6,7.3-11.7,10.4-11.7h130.6
			c5.4,0,9,2.7,10.1,7.3c0,0.2,0.1,0.5,0.1,0.8l1.6,0c38.9-23,69.2-59.1,84.9-102.2c-10.6,5.7-20.2,15.6-28.7,29.6
			c-2,4.1-5.8,6.4-10.8,6.4h-0.2c-2.9-0.1-5.7-0.9-8.2-2.4l-28-14.8l-0.2-0.1l-0.2-0.1c-6.3-3.8-7.2-9-7.2-11.7v-0.4
			c0.2-3.2,1.3-6.2,3.1-8.8c22.2-34.2,52.7-53.8,90.9-58.1c0.4,0,0.8-0.1,1.1-0.1c0.1-2.3,0.1-4.5,0.1-6.8
			C401,89.7,312.8,1.5,204,1.5z M227.3,205.7c0,0.1,0,0.1,0,0.2v0.7c0,0.1,0,0.1,0,0.2c0,0.2-0.1,0.4-0.1,0.6c0,0.1,0,0.1,0,0.2
			c0,0.2-0.1,0.4-0.1,0.6c0,0.1,0,0.2-0.1,0.3c0,0.2-0.1,0.3-0.1,0.5c0,0.1-0.1,0.2-0.1,0.4c0,0.1-0.1,0.2-0.1,0.4s-0.1,0.3-0.1,0.4
			c0,0.1-0.1,0.2-0.1,0.3c-0.1,0.2-0.1,0.4-0.2,0.5c0,0.1-0.1,0.1-0.1,0.2c-0.1,0.2-0.2,0.4-0.3,0.6c0,0,0,0.1-0.1,0.2
			c-0.1,0.2-0.2,0.4-0.3,0.6c0,0,0,0.1-0.1,0.1c-0.1,0.2-0.2,0.4-0.4,0.6c0,0,0,0.1-0.1,0.1c-0.1,0.2-0.3,0.4-0.4,0.6c0,0,0,0,0,0.1
			c0,0,0,0,0,0.1c-0.2,0.3-0.4,0.5-0.6,0.8l-0.1,0.1c-0.2,0.3-0.4,0.5-0.6,0.8c-0.1,0.1-0.2,0.2-0.2,0.3c-0.1,0.1-0.3,0.3-0.4,0.4
			c-0.1,0.1-0.2,0.2-0.4,0.3c-0.1,0.1-0.2,0.2-0.3,0.3c-0.5,0.4-1,0.9-1.5,1.2c-0.1,0.1-0.2,0.2-0.4,0.2c-0.1,0.1-0.3,0.2-0.4,0.3
			c-0.1,0.1-0.3,0.2-0.5,0.3c-0.1,0.1-0.2,0.2-0.4,0.2c-0.3,0.2-0.6,0.3-0.9,0.5c0,0,0,0-0.1,0c-0.3,0.2-0.6,0.3-0.9,0.4
			c0,0-0.1,0-0.2,0.1c-0.3,0.1-0.6,0.2-0.9,0.4h-0.1c-1,0.4-2.1,0.7-3.2,0.8h-0.1c-0.3,0-0.6,0.1-0.9,0.1h-0.3c-0.2,0-0.5,0-0.8,0.1
			h-2.9c-0.2,0-0.4,0-0.7-0.1h-0.4c-0.3,0-0.7-0.1-1-0.2c-0.1,0-0.2,0-0.3-0.1c-0.3-0.1-0.6-0.1-0.9-0.2c-0.1,0-0.2-0.1-0.3-0.1
			c-0.8-0.2-1.5-0.5-2.2-0.8c-0.1,0-0.1,0-0.2-0.1c-0.8-0.3-1.5-0.7-2.2-1.1c0,0,0,0-0.1,0l-95.3-56.5c-8.5-5-11-15.5-5.6-23.4
			c5.4-7.9,16.6-10.3,25.1-5.2l67.4,40V46.9c0-9.4,8.1-17,18.2-17c10,0,18.2,7.6,18.2,17V205h0.2V205.7z"/>
		<path class="st2" d="M169.5,460V492c0,0.7-0.2,1.2-0.7,1.7c-0.4,0.4-1.4,0.6-2.7,0.6H11.1c-3,0-3-0.8-3-2V460c0-1.3,0-2,2.6-2
			h45.7c6.8,0,7.2-4.9,7.2-5.8V270.2c0-1.1,0-4.4-2.4-6.3c-2-1.5-4.6-1.3-6.5-1.1l-0.3,0l-43.5,13.8l-0.4,0.1c0,0-0.3,0.1-1,0.1
			c-1,0-1.8,0-1.8-3.2V251c0-2.1,0.3-2.8,0.3-2.8c0,0,0.5-0.7,3-1.9l65.6-31.7c2.8-1.2,5.3-2.1,7.4-2.7c2-0.6,4.2-0.8,6.6-0.8h24.5
			c1.1,0,1.8,0,1.8,2.8V451c0,4.3,2.8,7,7.2,7h42.4C169.5,458,169.5,458.8,169.5,460z"/>
		<path class="st2" d="M295.7,369.3c0.1,0.5,0.2,0.9,0.2,1.4v32.9c0,2.2,0,6.3-8.7,6.3H164.5c-3.6,0-4.7-0.8-5-1.1
			c-0.7-0.7-1-2.1-1-4.2v-32.4c0-4.7,1.8-4.7,3.4-4.7h130.6C295.3,367.5,295.6,368.5,295.7,369.3z"/>
	</g>
</g>
</svg>
