<svg width="760" height="760" viewBox="0 0 760 760" fill="none" xmlns="http://www.w3.org/2000/svg">
<path d="M760.001 380C759.951 467.667 729.598 552.621 674.084 620.471C618.57 688.322 541.308 734.896 455.387 752.304C369.466 769.713 280.169 756.885 202.623 715.994C125.077 675.103 64.0502 608.664 29.8807 527.93C10.0677 481.133 -0.0952013 430.818 0.000672047 380V380C0.000672047 379.77 0.000672047 379.54 0.000672047 379.32C0.0324221 369.877 3.80525 360.831 10.4928 354.165C17.1804 347.498 26.2376 343.753 35.6807 343.75H35.8007L380.691 344.9C390.049 345.071 398.966 348.912 405.518 355.595C412.071 362.279 415.735 371.269 415.721 380.629C415.706 389.989 412.015 398.969 405.441 405.632C398.868 412.295 389.939 416.108 380.581 416.25H380.501L73.3907 415.25C80.0188 472.91 102.77 527.533 139.034 572.85C175.298 618.166 223.605 652.339 278.409 671.447C333.214 690.554 392.295 693.822 448.872 680.875C505.45 667.928 557.23 639.291 598.271 598.25C641.441 555.086 670.84 500.089 682.751 440.215C694.661 380.34 688.548 318.278 665.183 261.879C641.819 205.48 602.253 157.276 551.49 123.365C500.727 89.4546 441.048 71.36 380.001 71.3701V0.00010332C429.913 -0.0367151 479.344 9.76715 525.464 28.8509C571.584 47.9346 613.49 75.9238 648.783 111.217C684.077 146.511 712.066 188.417 731.15 234.537C750.234 280.657 760.037 330.087 760.001 380V380Z" fill="url(#paint0_linear)"/>
<defs>
<linearGradient id="paint0_linear" x1="797" y1="844.5" x2="380" y2="49.5001" gradientUnits="userSpaceOnUse">
<stop stop-color="#893025"/>
<stop offset="0.339929" stop-color="#E07D21"/>
<stop offset="0.881108" stop-color="#FCD788"/>
<stop offset="1" stop-color="#F2CC85" stop-opacity="0"/>
</linearGradient>
</defs>
</svg>
