<?xml version="1.0" encoding="utf-8"?>
<!-- Generator: Adobe Illustrator 25.4.1, SVG Export Plug-In . SVG Version: 6.00 Build 0)  -->
<svg version="1.1" id="Capa_1" xmlns="http://www.w3.org/2000/svg" xmlns:xlink="http://www.w3.org/1999/xlink" x="0px" y="0px"
	 viewBox="0 0 512 512" style="enable-background:new 0 0 512 512;" xml:space="preserve">
<style type="text/css">
	.st0{fill:#DF7D26;stroke:#000000;stroke-width:0.25;stroke-miterlimit:10;}
</style>
<g>
	<g id="content-copy">
		<path class="st0" d="M360.7,0H94.3C61.6,0,34.9,26.7,34.9,59.4v300.2c0,7.1,5.7,12.8,12.8,12.8h21c7.1,0,12.8-5.7,12.8-12.8V59.3
			c0-7.1,5.7-12.8,12.8-12.8h253.8c7.1,0,12.8-5.7,12.8-12.8L360.7,0L360.7,0z M430.5,93.1h-256c-25.6,0-46.5,20.9-46.5,46.5v325.8
			c0,25.6,20.9,46.5,46.5,46.5h256c25.6,0,46.5-20.9,46.5-46.5V139.6C477.1,114,456.1,93.1,430.5,93.1z M419.5,465.5H185.5
			c-6.1,0-11-4.9-11-11V150.6c0-6.1,4.9-11,11-11h233.9c6.1,0,11,4.9,11,11v303.8C430.5,460.6,425.6,465.5,419.5,465.5z M402.6,217
			H199.4c-3.5,0-6.4-2.9-6.4-6.4v-22.2c0-3.5,2.9-6.4,6.4-6.4h203.2c3.5,0,6.4,2.9,6.4,6.4v22.2C409,214.1,406.1,217,402.6,217z
			 M402.6,273.5H199.4c-3.5,0-6.4-2.9-6.4-6.4v-22.2c0-3.5,2.9-6.4,6.4-6.4h203.2c3.5,0,6.4,2.9,6.4,6.4v22.2
			C409,270.6,406.1,273.5,402.6,273.5z M402.6,329.5H199.4c-3.5,0-6.4-2.9-6.4-6.4v-22.2c0-3.5,2.9-6.4,6.4-6.4h203.2
			c3.5,0,6.4,2.9,6.4,6.4v22.2C409,326.6,406.1,329.5,402.6,329.5z M402.6,385.5H199.4c-3.5,0-6.4-2.9-6.4-6.4v-22.2
			c0-3.5,2.9-6.4,6.4-6.4h203.2c3.5,0,6.4,2.9,6.4,6.4v22.2C409,382.6,406.1,385.5,402.6,385.5z"/>
	</g>
</g>
</svg>
