<?xml version="1.0" encoding="utf-8"?>
<!-- Generator: Adobe Illustrator 25.4.1, SVG Export Plug-In . SVG Version: 6.00 Build 0)  -->
<svg version="1.1" id="Layer_1" xmlns="http://www.w3.org/2000/svg" xmlns:xlink="http://www.w3.org/1999/xlink" x="0px" y="0px"
	 viewBox="0 0 591 591" style="enable-background:new 0 0 591 591;" xml:space="preserve">
<style type="text/css">
	.st0{fill:#DE7D26;}
	.st1{fill:#DF7D26;}
</style>
<path class="st0" d="M504.5,86.5C389.1-28.9,202-29.1,86.6,86.2S-29,388.6,86.3,504.1c0.1,0.1,0.2,0.2,0.3,0.3
	C201.9,619.9,389,620,504.5,504.7s115.6-302.4,0.3-417.9C504.7,86.8,504.6,86.7,504.5,86.5z M469.1,469.1
	c-96.4,95.4-251.8,94.6-347.2-1.8c-94.7-95.7-94.7-249.8,0-345.4c95.4-96.4,250.8-97.1,347.2-1.8s97.1,250.8,1.8,347.2
	C470.3,467.9,469.7,468.5,469.1,469.1z"/>
<g>
	<path class="st1" d="M271.4,166.5v18.9c0,5.3-4.3,9.5-9.5,9.5h-96.8c-5.3,0-9.5,4.3-9.5,9.5v56.9c0,5.3,4.3,9.5,9.5,9.5h78.7
		c5.3,0,9.5,4.3,9.5,9.5v19.1c0,5.3-4.3,9.5-9.5,9.5h-78.7c-5.3,0-9.5,4.3-9.5,9.5v85.5c0,5.3-4.3,9.5-9.5,9.5h-29.9
		c-5.3,0-9.5-4.3-9.5-9.5V166.5c0-5.3,4.3-9.5,9.5-9.5h145.7C267.1,157,271.4,161.3,271.4,166.5z"/>
	<path class="st1" d="M351.3,322.9v81.2c0,5.3-4.3,9.5-9.5,9.5h-29.5c-5.3,0-9.5-4.3-9.5-9.5V166.5c0-5.3,4.3-9.5,9.5-9.5h70.2
		c17.8,0,33.1,1.8,45.8,5.4c12.7,3.6,23.1,8.7,31.3,15.2c8.1,6.5,14.1,14.3,17.9,23.3c3.8,9.1,5.7,19,5.7,29.9
		c0,8.6-1.3,16.8-3.9,24.5c-2.6,7.7-6.3,14.7-11.2,20.9c-4.9,6.3-10.9,11.8-18.1,16.5c-3.1,2.1-6.5,4-10,5.7
		c-5.7,2.8-7.2,10.2-3,14.9c1.5,1.7,3,3.5,4.4,5.5l55.1,79.8c4.4,6.3-0.2,14.9-7.8,14.9H463c-4.2,0-7.8-0.8-10.8-2.5
		c-3-1.7-5.5-4-7.5-7.1l-54.9-82.2c-2.1-3.1-4.3-5.3-6.8-6.6c-2.5-1.3-6.1-2-10.9-2h-11.2C355.6,313.4,351.3,317.6,351.3,322.9z
		 M351.3,269.6c0,5.3,4.3,9.5,9.5,9.5h20.8c9.2,0,17.1-1.1,23.9-3.4c6.8-2.2,12.4-5.4,16.8-9.3c4.4-4,7.7-8.7,9.8-14.1
		c2.2-5.4,3.3-11.4,3.3-17.9c0-13-4.4-23-13.1-30c-8.7-7-22.1-10.5-40-10.5h-21.5c-5.3,0-9.5,4.3-9.5,9.5V269.6z"/>
</g>
</svg>
