<?xml version="1.0" encoding="utf-8"?>
<!-- Generator: Adobe Illustrator 25.4.1, SVG Export Plug-In . SVG Version: 6.00 Build 0)  -->
<svg version="1.1" id="Layer_1" focusable="false" xmlns="http://www.w3.org/2000/svg" xmlns:xlink="http://www.w3.org/1999/xlink"
	 x="0px" y="0px" viewBox="0 0 640 512" style="enable-background:new 0 0 640 512;" xml:space="preserve">
<style type="text/css">
	.st0{fill:#D97B29;}
</style>
<path class="st0" d="M331.5,72.9L6.8,414.2C2.5,407.6,0,400,0,392V118.3c0-25.1,23.6-45.4,52.8-45.4H331.5z M636.1,128.1v269.7
	c0,26.8-36.1,42.4-62.3,27.1l-122.9-71.9c-7.7-4.5-12.5-12.6-12.5-21.2V194.2c0-8.6,4.7-16.7,12.5-21.2l122.9-72
	C600.1,85.6,636.1,101.4,636.1,128.1z M424.1,177V392c0,25.1-23.6,45.4-52.8,45.4H176.4L424.1,177z"/>
<g>
	<g>
		<path class="st0" d="M477.8,71.7l-53.8,56.5L129.8,437.3l-55.2,58c-6.2,6.5-14.1,9.7-21.9,9.7c-9,0-17.9-4.2-24.3-12.5l-0.2-0.3
			l-1.5-2c-11.4-14.8-10.4-37.2,2.4-50.6l5-5.3L377.7,73.3L432.2,16c6.2-6.5,14.1-9.7,21.9-9.7c9,0,17.9,4.2,24.3,12.5l0.2,0.3
			l1.5,2C491.6,35.8,490.6,58.3,477.8,71.7z"/>
	</g>
</g>
</svg>
