<?xml version="1.0" encoding="utf-8"?>
<!-- Generator: Adobe Illustrator 25.4.1, SVG Export Plug-In . SVG Version: 6.00 Build 0)  -->
<svg version="1.1" id="Layer_1" xmlns="http://www.w3.org/2000/svg" xmlns:xlink="http://www.w3.org/1999/xlink" x="0px" y="0px"
	 viewBox="0 0 16 13" style="enable-background:new 0 0 16 13;" xml:space="preserve">
<style type="text/css">
	.st0{fill-rule:evenodd;clip-rule:evenodd;fill:#DE7D26;}
</style>
<g transform="translate(-1295 -846)">
	<path class="st0" d="M1300.1,859c5.1,0,9.3-4.1,9.3-9.2c0-0.1,0-0.1,0-0.2v-0.4c0.6-0.5,1.2-1,1.6-1.7c-0.6,0.3-1.2,0.4-1.9,0.5
		c0.7-0.4,1.2-1,1.4-1.8c-0.6,0.4-1.3,0.6-2,0.8c-0.6-0.7-1.5-1.1-2.4-1.1c-1.8,0-3.3,1.5-3.3,3.3c0,0.2,0,0.5,0.1,0.7
		c-2.6-0.1-5.1-1.4-6.8-3.5c-0.3,0.5-0.4,1.1-0.4,1.7c0,1.1,0.5,2.1,1.4,2.8c-0.5,0-1.1-0.2-1.5-0.4l0,0c0,1.6,1.1,2.9,2.7,3.2
		c-0.3,0.1-0.6,0.1-0.9,0.1c-0.2,0-0.4,0-0.6-0.1c0.4,1.3,1.7,2.3,3.1,2.3c-1.2,0.9-2.6,1.4-4.1,1.4c-0.3,0-0.5,0-0.8-0.1
		C1296.5,858.4,1298.2,859,1300.1,859"/>
</g>
</svg>
