<?xml version="1.0" encoding="utf-8"?>
<!-- Generator: Adobe Illustrator 25.4.1, SVG Export Plug-In . SVG Version: 6.00 Build 0)  -->
<svg version="1.1" id="Layer_1" focusable="false" xmlns="http://www.w3.org/2000/svg" xmlns:xlink="http://www.w3.org/1999/xlink"
	 x="0px" y="0px" viewBox="0 0 576 512" style="enable-background:new 0 0 576 512;" xml:space="preserve">
<style type="text/css">
	.st0{fill:#D97B29;}
</style>
<path class="st0" d="M336.2,75H47.8C21.4,75,0,94.3,0,118.2v260.6C0,402.7,21.4,422,47.8,422h288.4c26.4,0,47.8-19.3,47.8-43.2
	V118.2C384,94.3,362.6,75,336.2,75L336.2,75z M519.6,101.7l-111.3,68.6c-7,4.3-11.3,12-11.3,20.2v130.9c0,8.2,4.3,15.9,11.3,20.2
	l111.3,68.5c23.7,14.6,56.4-0.3,56.4-25.8V127.5C576,102.1,543.4,87.1,519.6,101.7z"/>
</svg>
