<?xml version="1.0" encoding="utf-8"?>
<!-- Generator: Adobe Illustrator 24.1.2, SVG Export Plug-In . SVG Version: 6.00 Build 0)  -->
<svg version="1.1" id="Layer_1" focusable="false" xmlns="http://www.w3.org/2000/svg" xmlns:xlink="http://www.w3.org/1999/xlink"
	 x="0px" y="0px" viewBox="0 0 640 512" style="enable-background:new 0 0 640 512;" xml:space="preserve">
<style type="text/css">
	.st0{fill:#2699FB;}
</style>
<path class="st0" d="M633.8,458.1l-55-42.5c15.4-1.4,29.2-13.7,29.2-31.1v-257c0-25.5-29.1-40.4-50.4-25.8L448,177.3v137.2l-32-24.7
	v-178c0-26.4-21.4-47.8-47.8-47.8H123.9L45.5,3.4c-7-5.4-17-4.2-22.5,2.8L3.4,31.4c-5.4,7-4.2,17,2.8,22.4L42.7,82L416,370.6
	l178.5,138c7,5.4,17,4.2,22.5-2.8l19.6-25.3C642.1,473.6,640.8,463.5,633.8,458.1L633.8,458.1z M32,400.2
	c0,26.4,21.4,47.8,47.8,47.8h288.4c11.2,0,21.4-4,29.6-10.5L32,154.7V400.2z"/>
</svg>
