<?xml version="1.0" encoding="utf-8"?>
<!-- Generator: Adobe Illustrator 25.4.1, SVG Export Plug-In . SVG Version: 6.00 Build 0)  -->
<svg version="1.1" id="Layer_1" xmlns="http://www.w3.org/2000/svg" xmlns:xlink="http://www.w3.org/1999/xlink" x="0px" y="0px"
	 viewBox="0 0 16 16" style="enable-background:new 0 0 16 16;" xml:space="preserve">
<style type="text/css">
	.st0{fill:#DE7D26;}
</style>
<g transform="translate(-1384 -844)">
	<path class="st0" d="M1386.4,846.4c1.4-1.6,3.5-2.5,5.6-2.4c2.1-0.1,4.2,0.8,5.6,2.4c1.6,1.4,2.5,3.5,2.4,5.6
		c0.1,2.1-0.8,4.2-2.4,5.6c-1.4,1.6-3.5,2.5-5.6,2.4c-2.1,0.1-4.2-0.8-5.6-2.4c-1.5-1.5-2.4-3.5-2.4-5.6
		C1383.9,849.9,1384.8,847.8,1386.4,846.4z M1393.1,859c0.9-0.2,1.7-0.6,2.3-1.3c0.6-0.9,1-1.9,1.1-3c0-0.6-0.3-1.3-0.8-1.7
		c-0.5-0.5-1.2-0.8-2-0.9h-1.5c-0.5,0-0.9-0.1-1.4-0.3c-0.3-0.3-0.5-0.6-0.5-1c0-0.2,0.1-0.4,0.3-0.6c0.2-0.2,0.4-0.3,0.6-0.3
		c0.3,0,0.6,0.2,0.8,0.4c0.3,0.1,0.5,0.3,0.6,0.3c0.2,0,0.4,0,0.6-0.1c0.1-0.2,0.2-0.4,0.2-0.6c-0.1-0.5-0.3-1.1-0.8-1.4
		c0.5-0.8,0.7-1.8,0.8-2.7c0-0.2-0.1-0.3-0.3-0.3c-0.4-0.1-0.8-0.2-1.2-0.3c-1.4,0-2.8,0.4-4,1.1c-0.9,0.7-1.4,1.8-1.4,2.9
		c0,1,0.4,2,1.2,2.7c0.8,0.7,1.8,1.1,2.9,1.1l0,0v0.6c0,0.5,0.2,1.1,0.6,1.4c0.3,0.4,0.8,0.7,1.4,0.9v2.6c0,0.1,0,0.1,0.2,0.3
		C1392.9,859,1392.9,859,1393.1,859z"/>
</g>
</svg>
