<svg xmlns="http://www.w3.org/2000/svg" viewBox="0 0 760 760"><defs><style>.cls-1{fill:none;stroke:#000;stroke-miterlimit:10;stroke-width:62.69px;}.cls-2{fill:#f2cc85;}</style></defs><g id="Layer_1" data-name="Layer 1"><path class="cls-1" d="M717,71.5" transform="translate(-6.5 -4)"/></g><g id="Layer_2" data-name="Layer 2"><path class="cls-2" d="M766.5,384A380.09,380.09,0,0,1,36.38,531.93,377.6,377.6,0,0,1,6.5,384h0c0-.23,0-.46,0-.68a35.69,35.69,0,0,1,35.68-35.57h.12l344.89,1.15a35.68,35.68,0,0,1-.11,71.35H387l-307.11-1a308.65,308.65,0,0,0,524.88,183A308.63,308.63,0,0,0,386.5,75.37V4a379.72,379.72,0,0,1,380,380Z" transform="translate(-6.5 -4)"/></g></svg>