<?xml version="1.0" encoding="utf-8"?>
<!-- Generator: Adobe Illustrator 25.4.1, SVG Export Plug-In . SVG Version: 6.00 Build 0)  -->
<svg version="1.1" id="Layer_1" focusable="false" xmlns="http://www.w3.org/2000/svg" xmlns:xlink="http://www.w3.org/1999/xlink"
	 x="0px" y="0px" viewBox="0 0 576 512" style="enable-background:new 0 0 576 512;" xml:space="preserve">
<style type="text/css">
	.st0{fill:#DE7D26;}
</style>
<path class="st0" d="M150.1,433.1c0,36.5-29.6,66-66,66c-18.2,0-34.8-7.4-46.7-19.3c-12-12-19.3-28.5-19.3-46.7
	c0-36.5,29.6-66.1,66.1-66.1C120.6,367,150.1,396.6,150.1,433.1z"/>
<path class="st0" d="M570.8,427.5c0,36.5-29.6,66.1-66.1,66.1c-18.2,0-34.8-7.4-46.7-19.3c-12-12-19.3-28.5-19.3-46.7
	c0-36.5,29.6-66,66-66C541.2,361.4,570.8,391,570.8,427.5z"/>
<g>
	<path class="st0" d="M229.2,329c0.2,0.3,0.3,0.7,0,1c-13.9,18.8-67.5,62.1-70.5,41.2c-1.1-7.5,6-14.3,8.5-38.5
		c-90.9-6.3-162-63.3-162-132.5C5.2,126.6,85.4,67,184.2,67c10.5,0,20.7,0.7,30.7,2c-18.4,25.5-28.1,54.4-28.1,84.5
		c0,34.8,13,68.1,37.5,96.3c19.4,22.3,45.1,40.3,74.9,52.5C279,314.7,255.3,324,229.2,329z"/>
</g>
<g>
	<path class="st0" d="M449.8,286.4c0.2,4.9,0.7,9.3,1.2,13.2c0.7,5,1.5,9.3,2.4,12.9c2.9,11.6,6.2,16.8,5.4,22.4
		c-1.9,14-24.1,0.8-43.7-15.8c-4.7-4-9.2-8.2-13.3-12.2c-4.7-4.6-8.7-9.1-11.6-12.9h0c-23.5-0.2-45.9-3.9-66.4-10.5
		c-65.1-21-110.9-71.3-110.9-130c0-29.2,11.4-56.4,30.8-78.9c32.2-37.2,86.5-61.7,148.1-61.7c98.8,0,178.9,62.9,178.9,140.5
		C570.8,215.1,520.2,267.5,449.8,286.4z"/>
</g>
</svg>
