<?xml version="1.0" encoding="utf-8"?>
<!-- Generator: Adobe Illustrator 24.1.2, SVG Export Plug-In . SVG Version: 6.00 Build 0)  -->
<svg version="1.1" id="Layer_1" focusable="false" xmlns="http://www.w3.org/2000/svg" xmlns:xlink="http://www.w3.org/1999/xlink"
	 x="0px" y="0px" viewBox="0 0 576 512" style="enable-background:new 0 0 576 512;" xml:space="preserve">
<style type="text/css">
	.st0{fill:#2699FB;}
</style>
<path class="st0" d="M416,192c0-88.4-93.1-160-208-160S0,103.6,0,192c0,34.3,14.1,65.9,38,92c-13.4,30.2-35.5,54.2-35.8,54.5
	c-2.2,2.3-2.8,5.7-1.5,8.7S4.8,352,8,352c36.6,0,66.9-12.3,88.7-25c32.2,15.7,70.3,25,111.3,25C322.9,352,416,280.4,416,192z
	 M538,412c23.9-26,38-57.7,38-92c0-66.9-53.5-124.2-129.3-148.1c0.9,6.6,1.3,13.3,1.3,20.1c0,105.9-107.7,192-240,192
	c-10.8,0-21.3-0.8-31.7-1.9C207.8,439.6,281.8,480,368,480c41,0,79.1-9.2,111.3-25c21.8,12.7,52.1,25,88.7,25c3.2,0,6.1-1.9,7.3-4.8
	c1.3-2.9,0.7-6.3-1.5-8.7C573.5,466.2,551.4,442.3,538,412z"/>
</svg>
