<?xml version="1.0" encoding="utf-8"?>
<!-- Generator: Adobe Illustrator 25.4.1, SVG Export Plug-In . SVG Version: 6.00 Build 0)  -->
<svg version="1.1" id="Layer_1" xmlns="http://www.w3.org/2000/svg" xmlns:xlink="http://www.w3.org/1999/xlink" x="0px" y="0px"
	 viewBox="0 0 527 512" style="enable-background:new 0 0 527 512;" xml:space="preserve">
<style type="text/css">
	.st0{fill:#DE7D26;}
</style>
<path class="st0" d="M263.5,5.3C125,5.3,12.8,117.5,12.8,256S125,506.7,263.5,506.7S514.2,394.5,514.2,256S402,5.3,263.5,5.3z
	 M297.8,283.4c0,0.1,0,0.1,0,0.3v1c0,0.1,0,0.1,0,0.3c0,0.3-0.1,0.6-0.1,0.8c0,0.1,0,0.1,0,0.3c0,0.3-0.1,0.6-0.1,0.9
	c0,0.1,0,0.3-0.1,0.4c0,0.3-0.1,0.4-0.1,0.7c0,0.1-0.1,0.3-0.1,0.6c0,0.1-0.1,0.3-0.1,0.6c0,0.3-0.1,0.4-0.1,0.6
	c0,0.1-0.1,0.3-0.1,0.4c-0.1,0.3-0.1,0.6-0.3,0.7c0,0.1-0.1,0.1-0.1,0.3c-0.1,0.3-0.3,0.6-0.4,0.9c0,0,0,0.1-0.2,0.3
	c-0.1,0.3-0.3,0.6-0.4,0.8c0,0,0,0.1-0.1,0.1c-0.1,0.3-0.3,0.6-0.6,0.8c0,0,0,0.1-0.1,0.1c-0.1,0.3-0.4,0.6-0.6,0.9c0,0,0,0,0,0.1
	c0,0,0,0,0,0.1c-0.3,0.4-0.6,0.7-0.8,1.1l-0.1,0.1c-0.3,0.4-0.6,0.7-0.9,1.1c-0.1,0.1-0.3,0.3-0.3,0.4l-0.6,0.6
	c-0.1,0.1-0.3,0.3-0.6,0.4c-0.2,0.1-0.3,0.3-0.4,0.4c-0.7,0.6-1.4,1.3-2.1,1.7c-0.1,0.1-0.3,0.3-0.6,0.3c-0.1,0.2-0.4,0.3-0.6,0.4
	c-0.1,0.1-0.4,0.3-0.7,0.4c-0.1,0.1-0.3,0.3-0.6,0.3c-0.4,0.3-0.9,0.4-1.3,0.7c0,0,0,0-0.1,0c-0.4,0.3-0.8,0.4-1.3,0.6
	c0,0-0.1,0-0.3,0.1c-0.4,0.1-0.8,0.3-1.3,0.6h-0.1c-1.4,0.6-3,1-4.5,1.1h-0.1c-0.4,0-0.9,0.1-1.3,0.1h-0.4c-0.3,0-0.7,0-1.1,0.1
	h-4.1c-0.3,0-0.6,0-1-0.1H268c-0.4,0-1-0.1-1.4-0.3c-0.1,0-0.3,0-0.4-0.1c-0.4-0.1-0.9-0.1-1.3-0.3c-0.1,0-0.3-0.1-0.4-0.1
	c-1.1-0.3-2.1-0.7-3.1-1.1c-0.1,0-0.1,0-0.3-0.1c-1.1-0.4-2.1-1-3.1-1.6c0,0,0,0-0.1,0l-135.2-80.2c-12.1-7.1-15.6-22-7.9-33.2
	c7.7-11.2,23.6-14.6,35.6-7.4l95.6,56.8V58c0-13.3,11.5-24.1,25.8-24.1c14.2,0,25.8,10.8,25.8,24.1v224.4h0.3V283.4z"/>
</svg>
