<?xml version="1.0" encoding="utf-8"?>
<!-- Generator: Adobe Illustrator 25.4.1, SVG Export Plug-In . SVG Version: 6.00 Build 0)  -->
<svg version="1.1" id="Layer_1" xmlns="http://www.w3.org/2000/svg" xmlns:xlink="http://www.w3.org/1999/xlink" x="0px" y="0px"
	 viewBox="0 0 591 591" style="enable-background:new 0 0 591 591;" xml:space="preserve">
<style type="text/css">
	.st0{fill:#DE7D26;}
</style>
<path class="st0" d="M504.5,86.5C389.1-28.9,202-29.1,86.6,86.2S-29,388.6,86.3,504.1c0.1,0.1,0.2,0.2,0.3,0.3
	C201.9,619.9,389,620,504.5,504.7s115.6-302.4,0.3-417.9C504.7,86.8,504.6,86.7,504.5,86.5z M469.1,469.1
	c-96.4,95.4-251.8,94.6-347.2-1.8c-94.7-95.7-94.7-249.8,0-345.4c95.4-96.4,250.8-97.1,347.2-1.8s97.1,250.8,1.8,347.2
	C470.3,467.9,469.7,468.5,469.1,469.1z"/>
<path class="st0" d="M263.9,387.4v26.3c0,1.3-0.5,2.5-1.3,3.4c-1.1,1.1-2.7,1.6-4.2,1.5H99.7c-2.2,0-3.7-0.4-4.7-1.3
	s-1.5-2.4-1.5-4.5V183.3c0-3.7,1.6-5.5,4.9-5.5h157.3c2.8,0,4.2,1.6,4.2,4.9v24.7c0,4.1-1.9,6.2-5.8,6.2h-107
	c-3.7,0-5.5,1.5-5.5,4.5v56.8c0,3.3,1.5,4.9,4.5,4.9h74c3.2,0,4.9,1.6,4.9,4.9V311c0,2.6-1.5,3.9-4.6,3.9h-74.6
	c-2.8,0-4.2,1.3-4.2,3.9v60.3c-0.1,1.1,0.2,2.2,0.8,3.1c0.8,0.6,1.8,0.9,2.8,0.8h113.6c1.9,0,3.3,0.3,4,1S263.9,385.7,263.9,387.4z"
	/>
<path class="st0" d="M497.5,182.3v231.3c0,3.2-1.8,4.9-5.5,4.9h-27c-1.4,0-2.9-0.2-4.2-0.6c-1.4-0.7-2.6-1.7-3.6-2.9l-111-157.7
	c-0.9-1.3-1.7-1.9-2.4-1.8s-1.1,0.8-1.1,2.1v156.7c0,2.8-1.8,4.2-5.5,4.2h-28.5c-3.9,0-5.8-1.7-5.8-5.2v-230c0-3.7,1.7-5.5,5.2-5.5
	h32.4c1.7-0.1,3.3,0.2,4.9,0.8c1.4,0.9,2.6,2,3.6,3.4l104.5,150.5c0.9,1.5,1.8,2.3,2.9,2.3c1.3,0,2-1.1,2-3.2V183
	c0-3.5,1.7-5.2,5.2-5.2h30.2c1.5,0,2.5,0.3,3.1,1C497.3,179.9,497.6,181.1,497.5,182.3z"/>
</svg>
