<?xml version="1.0" encoding="utf-8"?>
<!-- Generator: Adobe Illustrator 25.4.1, SVG Export Plug-In . SVG Version: 6.00 Build 0)  -->
<svg version="1.1" id="Layer_1" xmlns="http://www.w3.org/2000/svg" xmlns:xlink="http://www.w3.org/1999/xlink" x="0px" y="0px"
	 viewBox="0 0 591 591" style="enable-background:new 0 0 591 591;" xml:space="preserve">
<style type="text/css">
	.st0{fill:#DE7D26;}
</style>
<path class="st0" d="M586,546.1L461.2,332.8c-6.6-8.9-17-8.9-23.4-0.2l-125,211.2c-10.4,14.1-2.8,38.7,11.9,38.8l249.8,1.8
	C589.3,584.8,596.5,560.3,586,546.1z"/>
<circle class="st0" cx="132.3" cy="151.2" r="132.3"/>
<g>
	<path class="st0" d="M495.8,63.3l51,87.5l-50.3,87.9l-101.2,0.4l-51-87.5l50.3-87.9L495.8,63.3 M496.8,19.4h-0.1l-103.3,0.4
		c-15.1,0-29,8.2-36.4,21.2l-51.2,89.7c-7.5,13-7.5,29.1,0.1,42.1l52.1,89.2c7.6,13,21.5,20.9,36.4,20.9h0.1l103.3-0.4
		c15.1,0,29-8.2,36.4-21.2l51.2-89.7c7.5-13,7.5-29.1-0.1-42.1l-52.1-89.2C525.6,27.3,511.7,19.4,496.8,19.4L496.8,19.4z"/>
</g>
<path class="st0" d="M212.2,588.5l-61.6-31.9c-5-2.5-10.8-2.5-15.9,0.1l-61.2,32.6c-12.4,6.7-27.1-3.9-24.7-17.8l11.3-68.4
	c0.9-5.5-0.9-11.1-5-15L5.3,440c-10.2-9.8-4.7-27,9.2-29L83,400.6c5.5-0.9,10.4-4.3,12.7-9.3l30.4-62.4c6.2-12.7,24.1-12.7,30.5-0.1
	l31.1,61.9c2.5,5,7.3,8.4,12.9,9.2l68.7,9.6c13.9,1.9,19.6,19.1,9.6,28.9l-49.3,48.7c-4,4-5.8,9.6-4.7,15.1l12.1,68.3
	C239.2,584.3,224.7,595,212.2,588.5z"/>
</svg>
