<?xml version="1.0" encoding="utf-8"?>
<!-- Generator: Adobe Illustrator 25.4.1, SVG Export Plug-In . SVG Version: 6.00 Build 0)  -->
<svg version="1.1" id="Layer_1" xmlns="http://www.w3.org/2000/svg" xmlns:xlink="http://www.w3.org/1999/xlink" x="0px" y="0px"
	 viewBox="0 0 591 591" style="enable-background:new 0 0 591 591;" xml:space="preserve">
<style type="text/css">
	.st0{fill:#DE7D26;}
</style>
<path class="st0" d="M504.5,86.5C389.1-28.9,202-29.1,86.6,86.2S-29,388.6,86.3,504.1c0.1,0.1,0.2,0.2,0.3,0.3
	C201.9,619.9,389,620,504.5,504.7s115.6-302.4,0.3-417.9C504.7,86.8,504.6,86.7,504.5,86.5z M469.1,469.1
	c-96.4,95.4-251.8,94.6-347.2-1.8c-94.7-95.7-94.7-249.8,0-345.4c95.4-96.4,250.8-97.1,347.2-1.8s97.1,250.8,1.8,347.2
	C470.3,467.9,469.7,468.5,469.1,469.1z"/>
<g>
	<path class="st0" d="M289.4,318.2c1.3,2.9,2.6,5.9,3.9,9c0.8,1.9,3.5,1.9,4.3,0c1.3-3.1,2.6-6.2,4-9.2c2.2-4.7,4.4-9.3,6.7-13.8
		l63.9-125.9c1.1-2.2,2.3-3.8,3.5-5c1.2-1.2,2.5-2.1,4-2.7c1.5-0.6,3.2-0.9,5-0.9s4.1,0,6.6,0h41.8c1.3,0,2.3,1.1,2.3,2.3v244.2
		c0,1.3-1.1,2.3-2.3,2.3h-46.2c-1.3,0-2.3-1.1-2.3-2.3V275.3c0-3.6,0.1-7.4,0.3-11.3c0.1-2.5-3.3-3.4-4.4-1.2l-60.8,118
		c-2.1,4-4.8,7-8.3,9.1c-3.5,2.1-7.4,3.1-11.9,3.1h-7.9c-4.4,0-8.4-1-11.9-3.1c-3.5-2.1-6.2-5.1-8.3-9.1l-60.9-117.7
		c-1.2-2.3-4.6-1.3-4.4,1.2c0,0,0,0.1,0,0.1c0.2,3.9,0.3,7.6,0.3,10.9v140.9c0,1.3-1.1,2.3-2.3,2.3h-46.2c-1.3,0-2.3-1.1-2.3-2.3
		V172c0-1.3,1.1-2.3,2.3-2.3h41.8c2.5,0,4.7,0,6.6,0c1.9,0,3.6,0.3,5,0.9c1.5,0.6,2.8,1.5,4,2.7c1.2,1.2,2.4,2.9,3.5,5l64.1,126.4
		C285.1,309,287.3,313.5,289.4,318.2z"/>
</g>
</svg>
