<?xml version="1.0" encoding="utf-8"?>
<!-- Generator: Adobe Illustrator 25.4.1, SVG Export Plug-In . SVG Version: 6.00 Build 0)  -->
<svg version="1.1" id="Layer_1" xmlns="http://www.w3.org/2000/svg" xmlns:xlink="http://www.w3.org/1999/xlink" x="0px" y="0px"
	 viewBox="0 0 527 512" style="enable-background:new 0 0 527 512;" xml:space="preserve">
<style type="text/css">
	.st0{fill:#DE7D26;}
</style>
<path class="st0" d="M204,1.5C95.2,1.5,7,89.7,7,198.5c0,92.3,63.5,169.8,149.2,191.2v-8.4c0-4.4,1.3-7.8,3.9-10.2l0.1-0.1l0.1-0.1
	c0.4-0.3,0.9-0.8,1.6-1.2l0.1,0l0.1,0c1.2-0.7,2.6-1.2,4-1.4h0.1c0.7-0.1,1.3-0.1,2-0.1h59.2v-57.3c0-1.2,0.1-2.4,0.3-3.5l0-0.1
	c0-0.3,0.1-0.6,0.2-0.9c0.4-2,1.4-4,2.8-5.5l0.1-0.1l0.1-0.1c0.3-0.3,0.6-0.6,1-0.9l0.1-0.1l0.1-0.1c1.1-0.8,2.3-1.4,3.7-1.8l0.1,0
	l0.1,0c1.5-0.4,3.1-0.6,4.7-0.6H265c1.5,0,2.9,0.2,4.2,0.5c1.7,0.4,3.2,1.2,4.6,2.3l0.1,0.1l0.1,0.1c0.3,0.3,0.6,0.6,0.9,0.9
	c0.3,0.3,0.6,0.6,0.8,1l0.1,0.1l0.1,0.1c1.4,2,2.1,4.3,2.1,6.8c0,0.1,0,0.3,0,0.4v59.1h26.3c38.9-23,69.2-59.1,84.9-102.2
	c-10.6,5.7-20.2,15.6-28.7,29.6c-2,4.1-5.8,6.4-10.8,6.4h-0.2c-2.9-0.1-5.7-0.9-8.2-2.4l-28-14.8l-0.2-0.1l-0.2-0.1
	c-6.3-3.8-7.2-9-7.2-11.7v-0.2l0-0.2c0.2-3.2,1.3-6.2,3.1-8.8c22.2-34.2,52.7-53.8,90.9-58.1c0.4,0,0.8-0.1,1.1-0.1
	c0.1-2.3,0.1-4.5,0.1-6.8C401,89.7,312.8,1.5,204,1.5z M227.3,205c0,0.2,0,0.4,0,0.7c0,0.1,0,0.1,0,0.2c0,0.2,0,0.4,0,0.7
	c0,0.1,0,0.1,0,0.2c0,0.2-0.1,0.4-0.1,0.6c0,0.1,0,0.1,0,0.2c0,0.2-0.1,0.4-0.1,0.6c0,0.1,0,0.2-0.1,0.3c0,0.2-0.1,0.3-0.1,0.5
	c0,0.1-0.1,0.2-0.1,0.4c0,0.1-0.1,0.2-0.1,0.4c0,0.2-0.1,0.3-0.1,0.4c0,0.1-0.1,0.2-0.1,0.3c-0.1,0.2-0.1,0.4-0.2,0.5
	c0,0.1-0.1,0.1-0.1,0.2c-0.1,0.2-0.2,0.4-0.3,0.6c0,0,0,0.1-0.1,0.2c-0.1,0.2-0.2,0.4-0.3,0.6c0,0,0,0.1-0.1,0.1
	c-0.1,0.2-0.2,0.4-0.4,0.6c0,0,0,0.1-0.1,0.1c-0.1,0.2-0.3,0.4-0.4,0.6c0,0,0,0,0,0.1c0,0,0,0,0,0.1c-0.2,0.3-0.4,0.5-0.6,0.8
	c0,0-0.1,0.1-0.1,0.1c-0.2,0.3-0.4,0.5-0.6,0.8c-0.1,0.1-0.2,0.2-0.2,0.3c-0.1,0.1-0.3,0.3-0.4,0.4c-0.1,0.1-0.2,0.2-0.4,0.3
	c-0.1,0.1-0.2,0.2-0.3,0.3c-0.5,0.4-1,0.9-1.5,1.2c-0.1,0.1-0.2,0.2-0.4,0.2c-0.1,0.1-0.3,0.2-0.4,0.3c-0.1,0.1-0.3,0.2-0.5,0.3
	c-0.1,0.1-0.2,0.2-0.4,0.2c-0.3,0.2-0.6,0.3-0.9,0.5c0,0,0,0-0.1,0c-0.3,0.2-0.6,0.3-0.9,0.4c0,0-0.1,0-0.2,0.1
	c-0.3,0.1-0.6,0.2-0.9,0.4c0,0-0.1,0-0.1,0c-1,0.4-2.1,0.7-3.2,0.8c0,0-0.1,0-0.1,0c-0.3,0-0.6,0.1-0.9,0.1c-0.1,0-0.2,0-0.3,0
	c-0.2,0-0.5,0-0.8,0.1c-0.1,0-0.2,0-0.3,0c-0.2,0-0.5,0-0.7,0c-0.1,0-0.2,0-0.3,0c-0.1,0-0.2,0-0.3,0c-0.3,0-0.5,0-0.8,0
	c-0.2,0-0.3,0-0.5,0c-0.2,0-0.4,0-0.7-0.1c-0.2,0-0.3,0-0.4,0c-0.3,0-0.7-0.1-1-0.2c-0.1,0-0.2,0-0.3-0.1c-0.3-0.1-0.6-0.1-0.9-0.2
	c-0.1,0-0.2-0.1-0.3-0.1c-0.8-0.2-1.5-0.5-2.2-0.8c-0.1,0-0.1,0-0.2-0.1c-0.8-0.3-1.5-0.7-2.2-1.1c0,0,0,0-0.1,0l-95.3-56.5
	c-8.5-5-11-15.5-5.6-23.4c5.4-7.9,16.6-10.3,25.1-5.2l67.4,40V46.9c0-9.4,8.1-17,18.2-17c10,0,18.2,7.6,18.2,17V205z"/>
<g>
	<path class="st0" d="M341.7,380.5v23.6c0,5.1-2.9,7.6-8.8,7.6h-62.1v65.9c0,0.4,0,0.8-0.1,1.2c-0.1,0.6-0.3,1.2-0.5,1.7
		c-0.6,1-1.5,1.7-2.6,1.9c-0.7,0.2-1.3,0.2-2,0.2h-24.1c-0.1,0-0.2,0-0.4,0c-1.6,0-3.1-0.5-4.4-1.5c-1.6-1.4-2.5-3.8-2.5-7.2v-62.1
		h-65.5c-0.4,0-0.7-0.1-1.1-0.1c-0.6-0.1-1.2-0.3-1.8-0.5c-0.2-0.1-0.5-0.2-0.7-0.4c-0.2-0.1-0.4-0.3-0.6-0.5
		c-0.3-0.3-0.5-0.6-0.7-0.9c-0.6-1.3-0.9-2.7-0.8-4.1v-24c0-2.3,0.6-4,1.7-5c0.2-0.2,0.4-0.4,0.6-0.5c0.5-0.3,1.1-0.5,1.7-0.6
		c0.3,0,0.7-0.1,1-0.1h66.2v-64.3c0-0.8,0.1-1.6,0.2-2.4c0-0.2,0.1-0.4,0.1-0.7c0.2-0.9,0.6-1.7,1.2-2.3c0.1-0.1,0.3-0.2,0.4-0.4
		c0.5-0.3,1-0.6,1.6-0.8c0.9-0.2,1.9-0.4,2.8-0.4H265c0.9,0,1.7,0.1,2.5,0.3c0.7,0.2,1.3,0.5,1.9,0.9c0.1,0.1,0.2,0.2,0.3,0.4
		c0.1,0.1,0.2,0.2,0.3,0.3c0.1,0.1,0.1,0.2,0.2,0.3c0.4,0.7,0.6,1.6,0.6,2.4c0,0.1,0,0.2,0,0.2v66.3h65.9
		C340.1,375.2,341.7,376.9,341.7,380.5z"/>
</g>
<g>
	<path class="st0" d="M517.5,456.8v35c0,4.1-2.3,6.1-6.8,6.1H319.9c-0.6,0-1.1,0-1.6,0c-1.3,0-2.5-0.3-3.7-0.8
		c-0.2-0.1-0.4-0.2-0.5-0.3c-0.2-0.1-0.3-0.2-0.5-0.3c-0.4-0.4-0.8-0.9-1-1.5c-0.5-1.3-0.7-2.8-0.7-4.2v-24.7c0-0.6,0.1-1.2,0.2-1.8
		c0.4-2,1.3-4,2.5-5.7c0.6-0.9,1.4-1.8,2.1-2.6c0.9-1,2-2.1,3.3-3.3c0.5-0.4,1-0.9,1.5-1.4c1.6-1.4,3.5-3,5.5-4.7l9.6-9l1.7-1.6
		l62.9-59.1c16-14.2,28.1-25.8,36.4-34.8c8.2-9,14-17.1,17.3-24.4c3.3-7.2,5-15.1,5-23c0-12.7-4.6-22.8-13.7-30.3
		c-9.1-7.5-20.2-11.2-33.4-11.2h-0.1c-7.2,0-14.1,1.3-20.7,3.8c-14.5,5.6-27.1,17.4-38,35.4c-0.8,1.8-2.3,2.7-4.6,2.7
		c-1.8-0.1-3.5-0.6-5-1.5l-28.2-14.9c-2.5-1.5-3.8-3.4-3.8-5.7c0.1-1.9,0.8-3.8,1.9-5.3c21.1-32.6,49.7-51,85.9-55.1
		c5.2-0.6,10.6-0.9,16.1-0.9c19,0,36,3.3,50.8,9.9c14.9,6.6,26.5,16.2,34.8,28.8c8.4,12.6,12.6,27.5,12.6,44.7
		c0,15.6-4.5,30.9-13,44c-8.6,13.6-23.4,29.1-44.2,46.6L385,446.9c-1.3,1.3-1.9,2.2-1.9,2.7c0,1.3,1.4,1.9,4.2,1.9H511
		c2.3,0,3.9,0.4,5,1.1C517,453.3,517.5,454.7,517.5,456.8z"/>
</g>
</svg>
