<svg id="Layer_1" data-name="Layer 1" xmlns="http://www.w3.org/2000/svg" viewBox="0 0 527 512"><defs><style>.cls-1{fill:#2699fb;}</style></defs><path class="cls-1" d="M287.48,228.56V208a20.09,20.09,0,0,0-.85-5.85V190.92H277.9l-.83-.7h-1.94a23.24,23.24,0,0,0-7.77-1.24h-24c-7.64,0-12.3,3.06-14.87,5.63a18.73,18.73,0,0,0-4.86,8.74,25.74,25.74,0,0,0-.77,6.52v50.31H170.65A18.54,18.54,0,0,0,157.86,265c-2.84,2.6-6.19,7.36-6.19,15.31v24c0,7.67,3.07,12.34,5.66,14.91A17.9,17.9,0,0,0,163,323a21.23,21.23,0,0,0,4.88,1.43c.72.12,1.48.22,2.32.29s1.48.08,2.32.08h50.32v48c0,9.56,4,15,7.38,17.89a20.79,20.79,0,0,0,13.88,4.9h24c10,0,17.67-6.3,19.12-15.68v-.11l0-.1a22.81,22.81,0,0,0,.21-3.09V324.79h36.85q4.86,7.38,9.13,15.3,5,9.24,9.11,19.14l-4.24,4-1.65,1.54-9.3,8.73c-2.89,2.35-5.3,4.42-7.35,6.32a47.54,47.54,0,0,0-7.65,8.48,29.27,29.27,0,0,0-4.62,10.88,24,24,0,0,0-.4,4.31v24.75c0,7,2.16,12.43,6.43,16.21a18.41,18.41,0,0,0,4.14,2.75,25.74,25.74,0,0,0,11.46,2.3h38.93A24,24,0,0,1,384,472v16a24,24,0,0,1-24,24H24A24,24,0,0,1,0,488V472a24,24,0,0,1,24-24c0-91,51-167.73,120.84-192C75,231.73,24,155,24,64A24,24,0,0,1,0,40V24A24,24,0,0,1,24,0H360a24,24,0,0,1,24,24V40a24,24,0,0,1-24,24c0,37.64-8.74,72.84-23.92,102.9-.63,1.25-1.29,2.48-1.95,3.72a151.81,151.81,0,0,0-21.86,26.87l0,.06,0,.07a25,25,0,0,0-3.95,10.74A178.86,178.86,0,0,1,287.48,228.56Z"/><path class="cls-1" d="M344.27,279.53v23.61q0,7.62-8.76,7.62H273.45v65.87a8.45,8.45,0,0,1-.08,1.16,4.85,4.85,0,0,1-.55,1.66,4,4,0,0,1-2.62,1.89,8.2,8.2,0,0,1-2.08.24h-24a7,7,0,0,1-4.75-1.52q-2.48-2.12-2.48-7.24V310.76H172.55c-.42,0-.81,0-1.19,0s-.73-.07-1.06-.13a7.33,7.33,0,0,1-1.76-.5,5,5,0,0,1-.73-.38,4,4,0,0,1-.59-.48,3.93,3.93,0,0,1-.67-.88,8.22,8.22,0,0,1-.85-4.07v-24c0-2.34.56-4,1.65-5a4.43,4.43,0,0,1,.65-.49,4.74,4.74,0,0,1,1.65-.57,6.45,6.45,0,0,1,1-.07H236.9V209.86a13,13,0,0,1,.19-2.36,6.4,6.4,0,0,1,.14-.66,4.91,4.91,0,0,1,1.19-2.32,4.79,4.79,0,0,1,.41-.36,5.13,5.13,0,0,1,1.59-.78,10.21,10.21,0,0,1,3-.38h24a10.07,10.07,0,0,1,2.66.31,4.9,4.9,0,0,1,1.9.93h0a3.82,3.82,0,0,1,.34.36,2.58,2.58,0,0,1,.32.34h0a4.91,4.91,0,0,1,.85,3V274.2h65.87Q344.27,274.2,344.27,279.53Z"/><path class="cls-1" d="M527,394.33v35q0,6.09-6.85,6.09H329.39c-.58,0-1.13,0-1.64-.05a10.1,10.1,0,0,1-3.68-.84c-.18-.09-.36-.19-.52-.29a5.3,5.3,0,0,1-.45-.34,4.14,4.14,0,0,1-1-1.51,10.85,10.85,0,0,1-.67-4.2V403.47a9.69,9.69,0,0,1,.17-1.75,15.4,15.4,0,0,1,2.5-5.67,22.19,22.19,0,0,1,2.14-2.64c.91-1,2-2.09,3.34-3.3.48-.45,1-.9,1.53-1.38q2.4-2.13,5.55-4.68l9.64-9.05,1.67-1.56,62.94-59.07q24-21.31,36.36-34.84t17.33-24.36a55,55,0,0,0,4.95-23q0-19-13.71-30.27t-33.51-11.23q-35,0-58.64,39.21-1.14,2.67-4.56,2.67a10.1,10.1,0,0,1-4.95-1.52L326,216.14q-3.81-2.29-3.81-5.71a10.36,10.36,0,0,1,1.91-5.33q36.17-56,102-56,28.56,0,50.83,9.9t34.84,28.75q12.57,18.85,12.57,44.74a80.49,80.49,0,0,1-13,44q-12.94,20.37-44.17,46.64l-72.72,61.3c-1.28,1.28-1.91,2.16-1.91,2.67,0,1.27,1.39,1.9,4.19,1.9H520.53q3.42,0,5,1.14C526.49,390.91,527,392.3,527,394.33Z"/></svg>