<?xml version="1.0" encoding="utf-8"?>
<!-- Generator: Adobe Illustrator 25.4.1, SVG Export Plug-In . SVG Version: 6.00 Build 0)  -->
<svg version="1.1" id="Layer_1" focusable="false" xmlns="http://www.w3.org/2000/svg" xmlns:xlink="http://www.w3.org/1999/xlink"
	 x="0px" y="0px" viewBox="0 0 933 512" style="enable-background:new 0 0 933 512;" xml:space="preserve">
<style type="text/css">
	.st0{fill:#DF7D26;}
</style>
<path class="st0" d="M853,320h-32c-8.8,0-16,7.2-16,16v112H485V128h144c8.8,0,16-7.2,16-16V80c0-8.8-7.2-16-16-16H469
	c-26.5,0-48,21.5-48,48v352c0,26.5,21.5,48,48,48l0,0h352c26.5,0,48-21.5,48-48l0,0V336C869,327.2,861.8,320,853,320z M909,0H781
	c-21.4,0-32,25.9-17,41l35.7,35.7L556,320.4c-9.4,9.4-9.4,24.6-0.1,33.9c0,0,0,0,0.1,0.1l22.7,22.6c9.4,9.4,24.6,9.4,33.9,0.1
	c0,0,0,0,0.1-0.1l243.6-243.7L892,169c15,15,41,4.5,41-17V24C933,10.7,922.3,0,909,0z"/>
<g>
	<path class="st0" d="M68.4,13.3l42.1,106.2c3,7.6,13.7,7.6,16.7,0l42.3-106.2c1.4-3.4,4.7-5.7,8.4-5.7h42c6.4,0,10.8,6.6,8.3,12.5
		l-84.5,200.3c-1.4,3.3-4.7,5.5-8.3,5.5h-33.2c-3.6,0-6.9-2.2-8.3-5.5L9.7,20.1C7.2,14.2,11.6,7.6,18,7.6h42
		C63.7,7.6,67,9.9,68.4,13.3z"/>
	<path class="st0" d="M311.6,16.6v200.3c0,5-4,9-9,9h-38.7c-5,0-9-4-9-9V16.6c0-5,4-9,9-9h38.7C307.6,7.6,311.6,11.6,311.6,16.6z"/>
	<path class="st0" d="M154.7,467.5H86.5c-3.8,0-7.3,2.4-8.5,6.1l-8.9,25.8c-1.2,3.6-4.7,6.1-8.5,6.1h-41c-6.3,0-10.7-6.3-8.4-12.2
		l76.2-200.3c1.3-3.5,4.7-5.8,8.4-5.8h49.5c3.7,0,7.1,2.3,8.4,5.8L230,493.2c2.2,5.9-2.1,12.2-8.4,12.2h-41c-3.8,0-7.3-2.4-8.5-6.1
		l-8.9-25.8C161.9,469.9,158.5,467.5,154.7,467.5z M141.8,412.4l-12.8-36.5c-2.8-8-14.2-8-17,0l-12.8,36.5c-2.1,5.9,2.3,12,8.5,12
		h25.6C139.5,424.4,143.9,418.2,141.8,412.4z"/>
	<path class="st0" d="M374.1,335.2h-50.3c-5,0-9,4-9,9v18.5c0,5,4,9,9,9h44.2c5,0,9,4,9,9v30.1c0,5-4,9-9,9h-44.2c-5,0-9,4-9,9v67.7
		c0,5-4,9-9,9h-38.7c-5,0-9-4-9-9V296.1c0-5,4-9,9-9h107.1c5,0,9,4,9,9v30.1C383.1,331.2,379.1,335.2,374.1,335.2z"/>
</g>
</svg>
