<?xml version="1.0" encoding="utf-8"?>
<!-- Generator: Adobe Illustrator 25.4.1, SVG Export Plug-In . SVG Version: 6.00 Build 0)  -->
<svg version="1.1" id="Layer_1" xmlns="http://www.w3.org/2000/svg" xmlns:xlink="http://www.w3.org/1999/xlink" x="0px" y="0px"
	 viewBox="0 0 16 16" style="enable-background:new 0 0 16 16;" xml:space="preserve">
<style type="text/css">
	.st0{fill:#DE7D26;}
</style>
<g transform="translate(-1384 -844)">
	<path class="st0" d="M1389.7,854.2C1389.7,854.2,1389.7,854.2,1389.7,854.2l-3.4,0.8l0.8,0.9l-1.2,1.2c0.2,0.2,0.3,0.4,0.5,0.6
		c0.1,0.1,0.2,0.3,0.4,0.4l1.2-1.2l0.8,0.9l1-3.4C1389.9,854.2,1389.8,854.2,1389.7,854.2z M1389.7,854.2
		C1389.7,854.2,1389.7,854.2,1389.7,854.2l-3.4,0.8l0.8,0.9l-1.2,1.2c0.2,0.2,0.3,0.4,0.5,0.6c0.1,0.1,0.2,0.3,0.4,0.4l1.2-1.2
		l0.8,0.9l1-3.4C1389.9,854.2,1389.8,854.2,1389.7,854.2z M1397.6,846.4c-1.4-1.6-3.5-2.5-5.6-2.4c-2.1-0.1-4.2,0.8-5.6,2.4
		c-1.6,1.4-2.5,3.5-2.4,5.6c0,1.7,0.6,3.3,1.6,4.6l0.8-0.8l-0.5-0.5l-0.6-0.6l0.8-0.2l3.4-0.8l0.1,0h0.1c0.2,0,0.4,0.1,0.5,0.3
		c0.1,0.2,0.2,0.4,0.1,0.6l-1,3.4l-0.2,0.8l-0.6-0.6l-0.5-0.5l-0.9,0.8c1.3,1.1,3.1,1.8,4.9,1.7c2.1,0.1,4.2-0.8,5.6-2.4
		c1.6-1.4,2.5-3.5,2.4-5.6C1400.1,849.9,1399.2,847.8,1397.6,846.4z M1395.4,857.7c-0.6,0.7-1.4,1.1-2.3,1.3c-0.2,0-0.2,0-0.3-0.2
		c-0.2-0.2-0.2-0.2-0.2-0.3v-2.6c-0.6-0.2-1.1-0.5-1.4-0.9c-0.4-0.3-0.6-0.9-0.6-1.4V853c-1.1,0-2.1-0.4-2.9-1.1
		c-0.8-0.7-1.2-1.7-1.2-2.7c0-1.1,0.5-2.2,1.4-2.9c1.2-0.7,2.6-1.1,4-1.1c0.4,0.1,0.8,0.2,1.2,0.3c0.2,0,0.3,0.1,0.3,0.3
		c-0.1,0.9-0.3,1.9-0.8,2.7c0.5,0.3,0.7,0.9,0.8,1.4c0,0.2-0.1,0.4-0.2,0.6c-0.2,0.1-0.4,0.1-0.6,0.1c-0.1,0-0.3-0.2-0.6-0.3
		c-0.2-0.2-0.5-0.4-0.8-0.4c-0.2,0-0.4,0.1-0.6,0.3c-0.2,0.2-0.3,0.4-0.3,0.6c0,0.4,0.2,0.7,0.5,1c0.5,0.2,0.9,0.3,1.4,0.3h1.5
		c0.8,0.1,1.5,0.4,2,0.9c0.5,0.4,0.8,1.1,0.8,1.7C1396.4,855.8,1396,856.8,1395.4,857.7z"/>
</g>
<g>
	<g>
		<g>
			<path class="st0" d="M5.9,10.3l-1,3.4L4,12.8L2.8,14l-1.7,1.6l-0.9-0.9L1.9,13l1.2-1.2L2.3,11l3.4-0.8c0,0,0,0,0,0
				C5.8,10.2,5.9,10.2,5.9,10.3z"/>
		</g>
	</g>
</g>
<path d="M19.1,2.2"/>
<path d="M22.8,1.3"/>
</svg>
