<?xml version="1.0" encoding="utf-8"?>
<!-- Generator: Adobe Illustrator 25.4.1, SVG Export Plug-In . SVG Version: 6.00 Build 0)  -->
<svg version="1.1" id="Layer_1" focusable="false" xmlns="http://www.w3.org/2000/svg" xmlns:xlink="http://www.w3.org/1999/xlink"
	 x="0px" y="0px" viewBox="0 0 640 512" style="enable-background:new 0 0 640 512;" xml:space="preserve">
<style type="text/css">
	.st0{fill:#DE7D26;}
</style>
<g transform="translate(-1384 -844)">
	<path class="st0" d="M1661,1043.1c-4.7,4.7-7.7,9.4-8.9,14.1l8.8,19.3l18.3-42.8C1673.2,1033.9,1667.1,1037,1661,1043.1z
		 M1958,1100c0.1-1.3,0.1-2.7,0.1-4l-3.9,8.6c-0.8,1.7-2.4,2.6-4,2.6c-1.6,0-3.3-0.9-4-2.7l-32.4-75.4c-0.7-1.8-2.3-2.6-3.9-2.6
		c-1.6,0-3.2,0.9-4,2.6l-32.2,75.4c-0.7,1.8-2.3,2.7-4,2.7c-1.6,0-3.2-0.8-4-2.6l-31.8-69.4c-0.7-1.5-2.3-2.5-3.9-2.5h-20.7
		c-0.3-0.1-0.6-0.1-0.9-0.1h-26.9c-1.7,0-3.2,1-3.9,2.6l-30.8,68h12.4c6.9,0.9,13.6,2.2,20,4l26.6-54.6l60.3,124.1
		c0.8,1.6,2.3,2.4,3.9,2.4c1.6,0,3.3-0.9,4-2.6l32.1-73.4c0.7-1.8,2.3-2.6,4-2.6c1.6,0,3.2,0.9,4,2.6l31.7,73.3
		c0.4,0.8,1,1.5,1.6,1.9C1955.5,1153.2,1959.3,1126.6,1958,1100z M1805.6,1086.9l-12.3,25.4c11,4.8,20.8,11.2,28.9,19.3
		c3.8,3.1,7.3,6.7,10.4,10.7L1805.6,1086.9z M1931.9,1182.6l0-0.1l-0.1-0.1l-22-50.8l-22.3,50.9c-3.1,7.1-10,11.7-17.8,11.7
		c-7.5,0-14.2-4.2-17.4-10.9l-7.3-15.1c1.5,5.8,2.4,11.6,2.4,17.2c-3.2,34.8-15.8,66.3-34.8,94.8c-19,22.1-44.2,34.8-72.7,41.1
		c-6.3,0-6.3,0-9.5-6.3c-6.3-6.3-6.3-6.3-6.3-9.5v-82.2c-18.9-6.3-34.8-15.8-44.2-28.4c-2.1-1.6-4-3.4-5.8-5.4
		c-3.4,3-7.9,4.8-12.8,4.8c-7.5,0-14.2-4.2-17.4-10.9l-28.9-59.4c-9-3.2-17.6-7.3-25.8-12.3l-34.9,71.6l0,0.1l0,0.1
		c-3.3,6.6-9.9,10.7-17.3,10.7c-7.6,0-14.6-4.5-17.7-11.4l-0.1-0.1l0-0.1l-22-50.8l-22.3,50.9c-1.2,2.7-2.9,5.1-5,6.9
		c13.1,32.4,33,62.3,58.3,87.6c44.2,50.6,110.6,79,176.9,75.8c66.3,3.2,132.7-25.3,176.9-75.8c26.5-23.1,46.9-52.4,59.8-84.5
		C1937.6,1190.6,1933.9,1187.1,1931.9,1182.6z M1882.2,923.1c-44.2-50.6-110.6-79-176.9-75.8c-66.3-3.2-132.7,25.3-176.9,75.8
		c-42.6,37.3-69.5,90.2-75,145.7l3.5,7.7l22.8-53.3l0-0.1l0-0.1c3.1-7,10.1-11.6,17.8-11.6c7.8,0,14.7,4.6,17.8,11.8l22.9,53.2
		l5.7-12.6c-8.2-16.3-12.4-34.3-12.4-52.3c0-34.8,15.8-69.5,44.2-91.6c37.9-22.1,82.1-34.8,126.4-34.8c12.6,3.2,25.3,6.3,37.9,9.5
		c6.3,0,9.5,3.2,9.5,9.5c-3.2,28.4-9.5,60-25.3,85.3c15.8,9.5,22.1,28.4,25.3,44.2c0,6.3-3.2,12.6-6.3,19c-3.3,1.7-6.6,2.5-10,2.8
		l9,21l21.5-47.5l0-0.1l0-0.1c3.2-6.8,10.1-11.2,17.5-11.2h26.9c0.7,0,1.3,0,2,0.1h19.7c7.5,0,14.4,4.4,17.5,11.1l0,0l0,0l21.8,47.6
		l22.8-53.3l0-0.1l0-0.1c3.1-7,10.1-11.6,17.8-11.6c7.8,0,14.7,4.6,17.8,11.8l22.9,53.2l6-13.3
		C1949.9,1009.8,1923.3,959.1,1882.2,923.1z M1714.9,1050.9c-2.7-1.6-6-3.3-9.7-4.6c-3.1-3.1-7-6.3-11.3-8.6l-24.3,56.9
		c10.1,3.9,19,6.5,28.4,7.7c0.8-1.2,2.2-1.9,3.5-1.9c1.6,0,3.2,0.9,4,2.6c2,0.1,4,0.2,6.1,0.2h25.8L1714.9,1050.9z M1661,1043.1
		c-4.7,4.7-7.7,9.4-8.9,14.1l8.8,19.3l18.3-42.8C1673.2,1033.9,1667.1,1037,1661,1043.1z M1661,1150.6v-19c-9.1,0-18-0.9-26.6-2.5
		l23.2,47.6c0.8,1.6,2.3,2.4,3.9,2.4c1.6,0,3.3-0.9,4-2.6l0.5-1.1C1662.6,1167.4,1661,1158.6,1661,1150.6z M1569.4,1096.8
		c-6.1-5.4-11.5-11.2-16.1-17.6l-11.5,25.3c-0.8,1.7-2.4,2.6-4,2.6c-1.6,0-3.3-0.9-4-2.7l-32.4-75.4c-0.7-1.8-2.3-2.6-4-2.6
		c-1.6,0-3.2,0.9-4,2.6l-32.2,75.4c-0.7,1.8-2.3,2.7-4,2.7c-1.6,0-3.2-0.8-4-2.6l-0.7-1.6c0.3,23.4,4.1,46.3,11.1,68.3l29.8-68.3
		c0.7-1.8,2.3-2.6,3.9-2.6c1.6,0,3.2,0.9,4,2.6l31.7,73.3c0.8,1.8,2.4,2.6,4.1,2.6c1.5,0,3.1-0.8,3.9-2.4l35.8-73.6
		C1574.3,1101,1571.8,1099,1569.4,1096.8z"/>
</g>
<g>
	<path class="st0" d="M636.5,194.9l-67,137.7c-0.8,1.6-2.4,2.4-3.9,2.4c-0.8,0-1.7-0.2-2.4-0.7c-0.7-0.4-1.3-1.1-1.7-1.9L529.8,259
		c-0.8-1.8-2.4-2.6-4-2.6c-1.6,0-3.2,0.9-4,2.6l-32.1,73.4c-0.8,1.8-2.4,2.6-4,2.6c-1.6,0-3.1-0.8-3.9-2.4l-60.3-124.1L395,263.2
		l-33.8,69.4c-0.8,1.6-2.4,2.4-3.9,2.4c-1.6,0-3.3-0.9-4.1-2.6L321.5,259c0,0,0,0,0-0.1c-0.8-1.7-2.4-2.6-4-2.6
		c-1.4,0-2.7,0.6-3.5,1.9c-0.2,0.2-0.3,0.5-0.4,0.8l-31.7,72.4l-0.5,1c-0.7,1.8-2.4,2.6-4,2.6c-1.6,0-3.1-0.8-3.9-2.4L250.4,285
		l-35.1-72.2L192.9,259l-35.8,73.6c-0.8,1.6-2.4,2.4-3.9,2.4c-1.6,0-3.3-0.9-4.1-2.6L117.4,259c-0.8-1.8-2.4-2.6-4-2.6
		c-1.6,0-3.2,0.9-3.9,2.6l-29.8,68.3l-2.3,5.2c-0.8,1.8-2.4,2.6-4,2.6c-1.6,0-3.1-0.8-3.9-2.4l-67-137.8c-1.5-2.9,0.7-6.3,3.9-6.3
		h27c1.8,0.1,3.3,1,4,2.6L68.5,259l0.7,1.6c0.8,1.7,2.4,2.6,4,2.6c1.6,0,3.2-0.9,4-2.7l32.2-75.4c0.8-1.8,2.4-2.6,4-2.6
		s3.2,0.9,4,2.6l32.4,75.4c0.7,1.8,2.4,2.7,4,2.7c1.6,0,3.2-0.9,4-2.6l11.5-25.3l20-44.1c0.7-1.5,2.3-2.6,3.9-2.6h26.9
		c0.3,0,0.6,0,0.9,0.1h16.6c1.7,0,3.2,0.9,3.9,2.5l31.8,69.4c0.8,1.7,2.4,2.6,4,2.6c1.6,0,3.2-0.9,4-2.7l4.2-9.9l24.3-56.9l3.7-8.6
		c0.8-1.8,2.4-2.6,4-2.6s3.2,0.9,4,2.6l9.4,21.8l22.5,52.3l0.6,1.3c0.7,1.8,2.4,2.7,4,2.7c1.6,0,3.2-0.9,4-2.6l0.6-1.4l30.8-68
		c0.7-1.5,2.3-2.6,3.9-2.6h26.9c0.3,0,0.6,0,0.9,0.1H446c1.7,0,3.2,0.9,3.9,2.5l31.8,69.4c0.8,1.7,2.4,2.6,4,2.6
		c1.6,0,3.2-0.9,4-2.7l32.2-75.4c0.8-1.8,2.4-2.6,4-2.6c1.6,0,3.2,0.9,3.9,2.6l32.4,75.4c0.7,1.8,2.4,2.7,4,2.7c1.6,0,3.2-0.9,4-2.6
		l3.9-8.6l27.6-60.8c0.7-1.5,2.3-2.6,3.9-2.6h26.9C635.8,188.6,638,192,636.5,194.9z"/>
</g>
</svg>
