<?xml version="1.0" encoding="utf-8"?>
<!-- Generator: Adobe Illustrator 25.4.1, SVG Export Plug-In . SVG Version: 6.00 Build 0)  -->
<svg version="1.1" id="Layer_1" focusable="false" xmlns="http://www.w3.org/2000/svg" xmlns:xlink="http://www.w3.org/1999/xlink"
	 x="0px" y="0px" viewBox="0 0 640 512" style="enable-background:new 0 0 640 512;" xml:space="preserve">
<style type="text/css">
	.st0{fill:#DE7D26;}
</style>
<g>
	<path class="st0" d="M36.2,190.9l30.7,67c1.5,3.3,6.3,3.3,7.7-0.1l31.1-72.8c1.5-3.4,6.3-3.4,7.7,0l31.3,72.8
		c1.4,3.4,6.2,3.4,7.7,0.1l30.4-67c0.7-1.5,2.2-2.5,3.8-2.5h26c3.1,0,5.2,3.3,3.8,6.1l-64.7,132.9c-1.6,3.2-6.2,3.1-7.7-0.2
		l-30.6-70.8c-1.5-3.4-6.3-3.4-7.7,0l-31,70.9c-1.4,3.3-6.1,3.4-7.6,0.2L2.4,194.5c-1.4-2.8,0.7-6.1,3.8-6.1h26.1
		C34,188.5,35.5,189.4,36.2,190.9z"/>
	<path class="st0" d="M246.3,190.9l30.7,67c1.5,3.3,6.3,3.3,7.7-0.1l31.1-72.8c1.5-3.4,6.3-3.4,7.7,0l31.3,72.8
		c1.4,3.4,6.2,3.4,7.7,0.1l30.4-67c0.7-1.5,2.2-2.5,3.8-2.5h26c3.1,0,5.2,3.3,3.8,6.1l-64.7,132.9c-1.6,3.2-6.2,3.1-7.7-0.2
		l-30.6-70.8c-1.5-3.4-6.3-3.4-7.7,0l-31,70.9c-1.4,3.3-6.1,3.4-7.6,0.2l-64.6-132.9c-1.4-2.8,0.7-6.1,3.8-6.1h26.1
		C244.1,188.5,245.6,189.4,246.3,190.9z"/>
	<path class="st0" d="M456.4,190.9l30.7,67c1.5,3.3,6.3,3.3,7.7-0.1l31.1-72.8c1.5-3.4,6.3-3.4,7.7,0l31.3,72.8
		c1.4,3.4,6.2,3.4,7.7,0.1l30.4-67c0.7-1.5,2.2-2.5,3.8-2.5h26c3.1,0,5.2,3.3,3.8,6.1l-64.7,132.9c-1.6,3.2-6.2,3.1-7.7-0.2
		l-30.6-70.8c-1.5-3.4-6.3-3.4-7.7,0l-31,70.9c-1.4,3.3-6.1,3.4-7.6,0.2l-64.6-132.9c-1.4-2.8,0.7-6.1,3.8-6.1h26.1
		C454.2,188.5,455.7,189.4,456.4,190.9z"/>
</g>
</svg>
